<?xml version="1.0" encoding="UTF-8"?>
<svg id="Capa_5" data-name="Capa 5" xmlns="http://www.w3.org/2000/svg" viewBox="0 0 2970 1440">
  <defs>
    <style>
      .cls-1 {
        fill: #bf6849;
      }
    </style>
  </defs>
  <path class="cls-1" d="M1253.16,61.06c21.37-.04,42.74,1.62,63.83,5.01,21.18,3.4,42.08,8.48,62.47,15.15,20.25,6.63,39.98,14.83,58.94,24.54,19.02,9.74,37.28,20.99,54.52,33.64,17.2,12.63,33.24,26.73,49.38,40.66,16.24,14.02,32.64,27.96,50.33,40.14,8.82,6.07,17.96,11.68,27.48,16.59,10.15,5.23,20.7,9.65,31.4,13.61,21.38,7.9,43.4,13.9,65.03,21.05,19.24,6.36,38.15,13.78,55.66,24.08,16.46,9.69,31.79,21.94,43.02,37.53,2.74,3.8,5.22,7.78,7.45,11.9,1.53,2.83,5.84.31,4.32-2.52-9.31-17.28-23.27-31.45-39.17-42.77-16.14-11.48-34.2-20.06-52.7-27.01-21.37-8.02-43.41-14.03-65.08-21.14-21.37-7.01-42.24-15.29-61.52-27-18.28-11.09-35.02-24.45-51.3-38.26-16.43-13.94-32.46-28.38-49.38-41.74-16.95-13.39-34.87-25.48-53.72-36.03s-38.53-19.58-58.79-27.05c-20.19-7.45-40.97-13.32-62.07-17.53s-42.7-6.79-64.28-7.6c-5.27-.2-10.54-.29-15.82-.28-3.22,0-3.22,5.01,0,5h0Z"/>
  <path class="cls-1" d="M1792.25,758.17c11.97,10.32,26.32,17.32,41.57,21.31,15.52,4.05,31.73,5.16,47.71,4.56s32.57-3.06,48.59-6.35,33.35-7.86,49.62-13.18,32.39-11.63,48.05-18.76c15.59-7.09,30.78-15.06,45.49-23.84s28.92-18.38,42.55-28.75,26.55-21.4,38.91-33.15c10.46-9.95,21.36-19.99,28.8-32.53,3.64-6.13,6.34-12.95,6.74-20.13.2-3.52-.23-7.13-1.26-10.51-1.2-3.94-3.07-8.42-7.22-9.95s-9.35,1.94-8.05,6.69c.85,3.1,5.67,1.78,4.82-1.33-.27-.98,1.38-.78,1.97-.47,1.47.77,2.25,2.63,2.84,4.09,1.21,2.99,1.88,6.15,1.93,9.36.11,6.47-2.16,12.73-5.31,18.35-6.82,12.18-17.25,21.93-27.28,31.43-11.78,11.17-23.96,21.87-36.81,31.82-12.99,10.05-26.55,19.38-40.55,27.96-14.07,8.63-28.6,16.5-43.51,23.57-14.84,7.04-30.06,13.27-45.58,18.66-15.59,5.42-31.46,9.99-47.55,13.68s-31.16,6.43-47,7.73c-15.29,1.25-30.85,1.17-45.99-1.47-14.67-2.56-28.93-7.51-41.38-15.79-3-2-5.86-4.17-8.59-6.52-1.02-.88-2.53-1-3.54,0-.9.9-1.03,2.65,0,3.54h0Z"/>
  <path class="cls-1" d="M2442.92,1069.25c4.19,5.62,9.51,10.22,15.81,13.34,6.37,3.15,13.25,4.82,20.26,5.74,15.38,2.01,31.04.44,46.44-.47,15.52-.93,31.56-1.76,46.7,1.87,3.4.82,6.98,1.93,10.07,3.23,3.75,1.57,7.23,3.66,10.68,5.79,8.17,5.05,16.01,10.6,23.66,16.4,15.31,11.61,29.83,24.24,44.92,36.12,14.93,11.75,30.47,22.93,47.58,31.31,9.04,4.43,18.48,8.06,28.21,10.67,10.83,2.9,21.97,4.59,33.14,5.51,22.53,1.86,45.16.51,67.68-.61,20.76-1.03,41.57-1.78,62.3.31,19.42,1.96,38.94,6.44,56.29,15.62,4.22,2.24,8.29,4.74,12.18,7.5,1.1.78,2.78.2,3.42-.9.73-1.25.21-2.64-.9-3.42-16.2-11.5-35.32-18.14-54.76-21.58s-40.1-4.02-60.21-3.35c-22.45.75-44.88,2.63-67.36,2.28-21.91-.33-43.89-2.92-64.5-10.73-17.61-6.67-33.69-16.81-48.78-27.95-15.38-11.36-29.85-23.89-44.78-35.83-7.53-6.03-15.17-11.92-23.08-17.45-3.93-2.75-7.92-5.4-11.99-7.93-3.44-2.14-6.91-4.23-10.63-5.86-14.37-6.3-30.4-7.09-45.88-6.67s-31.61,2.3-47.45,2.02c-7.24-.13-14.06-.68-21-2.45-6.2-1.59-12.19-4.19-17.02-8.12-2.48-2.01-4.89-4.51-6.68-6.92-.81-1.08-2.16-1.63-3.42-.9-1.07.62-1.71,2.33-.9,3.42h0Z"/>
</svg>
