<?xml version="1.0" encoding="UTF-8"?>
<svg id="Capa_5" data-name="Capa 5" xmlns="http://www.w3.org/2000/svg" viewBox="0 0 2970 1440">
  <defs>
    <style>
      .cls-1 {
        fill: #a79853;
      }
    </style>
  </defs>
  <path class="cls-1" d="M2456.95,1046.57c13.88,7.66,25.37,18.77,35.78,30.58,10.81,12.27,20.59,25.41,31.25,37.81s22.1,23.97,35.93,32.55c16.66,10.34,35.86,14.71,55.26,15.78,20.62,1.15,41.23-1,61.82-1.89,19.96-.86,39.87.04,59.59,3.32s38.53,8.45,57.06,15.14,37,15.07,54.69,24.32c17.93,9.38,35.33,19.76,52.34,30.72,17.24,11.1,34.08,22.81,50.71,34.79,3.99,2.88,7.98,5.77,11.95,8.67,1.09.8,2.79.18,3.42-.9.74-1.27.2-2.62-.9-3.42-16.53-12.08-33.22-23.97-50.26-35.33s-34.11-22.02-51.84-31.88c-17.65-9.82-35.82-18.75-54.55-26.34-18.29-7.42-37.15-13.51-56.44-17.73-19.42-4.25-39.27-6.62-59.16-6.72-20.66-.1-41.24,2.23-61.89,2.54-19.88.29-40.35-1.32-58.67-9.69-14.76-6.74-27.13-17.38-38.11-29.16-11.16-11.97-21-25.07-31.44-37.65s-21.24-24.43-34.43-33.81c-3.08-2.19-6.28-4.21-9.59-6.03-2.82-1.56-5.34,2.76-2.52,4.32h0Z"/>
  <path class="cls-1" d="M2339.87,714.46c-1.22-8.13-5.17-15.96-12.68-19.92-6.95-3.66-15.13-3.66-22.68-2.24-8.3,1.56-16.34,4.96-23.55,9.33-8.01,4.86-15.13,11.29-21.69,17.94-13.58,13.75-24.61,29.91-33.12,47.23-8.59,17.47-14.77,36.06-19.12,55.01-4.33,18.83-6.92,38.06-8.31,57.32-1.29,17.86-1.52,35.8-.99,53.7.45,15.27,1.45,30.52,2.82,45.74,1.57,17.48,3.13,35,5.61,52.37s6.25,36.67,14.22,53.35c3.48,7.29,7.95,14.24,13.72,19.94,5.64,5.57,12.5,9.77,20.08,12.12,4.04,1.25,8.23,1.94,12.44,2.24,1.35.1,2.5-1.22,2.5-2.5,0-1.43-1.15-2.4-2.5-2.5-7.66-.55-15.12-2.79-21.67-6.99-6.05-3.89-11.25-9.58-15.18-15.67-9.35-14.48-13.68-31.77-16.76-48.7-3.3-18.14-4.86-36.51-6.65-54.9-1.36-14.03-2.49-28.08-3.16-42.16-.82-17.06-1.01-34.15-.32-51.22.75-18.56,2.52-37.02,5.78-55.24s8.24-37.16,15.3-54.81c6.89-17.22,16.04-33.78,27.69-48.29,6.02-7.5,12.69-14.47,19.95-20.78,6.35-5.51,13.15-10.21,21.1-13.67,3.34-1.45,7.45-2.82,11.27-3.67s6.94-1.23,10.9-1.06c.89.04,1.78.11,2.66.22-.46-.06.58.1.75.13.46.08.92.18,1.38.28,1.78.41,3.37.98,4.57,1.58,2.98,1.49,5.25,3.51,6.94,6.12,2.17,3.33,3.22,6.93,3.84,11.02.2,1.34,1.88,2.07,3.08,1.75,1.43-.39,1.95-1.73,1.75-3.08h0Z"/>
  <path class="cls-1" d="M2039.26,495.62c-.54-7.39-3.69-14.53-10.81-17.67-4.19-1.85-8.85-2.19-13.38-2.16-4.27.02-8.64,1.49-12.59,2.98-9.42,3.56-17.95,9.03-25.73,15.36s-15.18,14.03-21.48,22.2c-5.8,7.53-10.54,15.75-14.91,24.17-4.18,8.07-7.9,16.39-11.04,24.92-6.67,18.12-10.44,37.11-12.45,56.29-2.22,21.16-2.65,42.57-2.11,63.83.57,22.72,2.49,45.4,5.79,67.88s8.1,45.55,14.69,67.69c5.05,16.97,11.56,33.57,19.6,49.35,8.16,16.03,18,31.33,30.01,44.76,11.34,12.69,24.88,23.77,40.45,30.84,3.77,1.71,7.64,3.21,11.6,4.45,3.08.96,4.39-3.86,1.33-4.82-15.55-4.86-29.41-13.92-41.18-25.07-12.52-11.86-22.8-25.91-31.43-40.79-8.77-15.12-15.89-31.17-21.58-47.68-6.84-19.83-11.72-40.39-15.52-61-4.06-22-6.66-44.26-7.97-66.59-1.23-20.99-1.31-42.05-.19-63.04,1.04-19.63,3.33-39.22,8.51-58.22,4.65-17.08,11.67-33.31,20.39-48.69,9.6-16.93,22.82-32.08,39.12-42.88,7.45-4.93,15.91-9.33,24.82-10.8.4-.07,1.29-.13,2.02-.13,1,0,2,.06,3.01.11,2.23.1,4.39.3,6.53.97,3.13.98,5.6,2.88,7.17,5.49,1.47,2.46,2.15,5.48,2.36,8.27.1,1.35,1.08,2.5,2.5,2.5,1.28,0,2.6-1.15,2.5-2.5h0Z"/>
  <path class="cls-1" d="M1277.74,3.51c17.81,7.7,34.32,18.32,48.69,31.36,14.56,13.21,26.67,28.69,36.23,45.85,5.1,9.16,9.72,18.59,15.28,27.49s11.48,16.31,19.08,22.79c13.71,11.7,30.63,18.74,48.06,22.79,18.19,4.23,36.97,5.51,55.59,5.99,9.7.25,19.4.2,29.09.78,9.53.57,19.04,1.57,28.45,3.19,17.53,3,34.7,8.07,50.94,15.33,17.31,7.74,33.52,17.72,48.86,28.81,15.23,11.02,30.05,22.75,43.82,35.56,13.68,12.72,26.37,26.67,36.5,42.41s17.39,32.94,20.55,51.32c2.51,14.63,1.85,30.15-.73,44.8-2.84,16.2-7.84,31.96-13.73,47.29-6.25,16.28-13.56,32.13-21.09,47.85-7.73,16.15-15.74,32.16-23.34,48.38s-14.5,31.85-20.34,48.33c-5.43,15.31-9.73,31.06-11.74,47.21-2.03,16.38-1.38,33.32,2.45,49.4,3.29,13.82,9.42,27.34,19.63,37.44,9.42,9.32,21.7,14.78,34.76,16.52,6.85.91,13.77.83,20.63.04,1.34-.15,2.5-1.04,2.5-2.5,0-1.23-1.15-2.66-2.5-2.5-3.68.42-7.37.65-11.08.63-1.71-.01-3.43-.08-5.13-.21-1.6-.12-3.46-.32-4.7-.51-6.33-.95-12.52-2.82-17.91-5.59s-10.16-6.32-14.48-10.9-7.96-10.13-10.85-16.16c-6.9-14.43-9.34-31.32-9.44-47.36s2.63-30.73,6.79-45.67c4.51-16.18,10.63-31.88,17.35-47.25,7.13-16.3,14.95-32.29,22.74-48.28s15.58-31.98,22.65-48.31c6.75-15.58,12.93-31.48,17.41-47.88,4.13-15.13,6.84-30.81,6.7-46.53-.16-17.54-4.24-34.77-11.29-50.8-7.5-17.05-18.34-32.44-30.69-46.31-12.56-14.1-26.74-26.68-41.5-38.43-15.05-11.99-30.58-23.5-47.21-33.22-15.67-9.15-32.32-16.65-49.73-21.83-17.9-5.32-36.46-8.15-55.08-9.27-9.76-.59-19.53-.54-29.3-.79-9.26-.24-18.52-.69-27.74-1.59-17.76-1.74-35.79-5.16-52.03-12.81-7.89-3.71-15.34-8.4-21.84-14.23-7.4-6.62-13.28-14.54-18.36-23.03-5.4-9-9.98-18.45-15.2-27.55-4.93-8.61-10.56-16.79-16.82-24.49-12.29-15.11-27.08-28.22-43.51-38.68-7.94-5.05-16.27-9.47-24.9-13.2-1.24-.54-2.68-.37-3.42.9-.62,1.06-.35,2.88.9,3.42h0Z"/>
</svg>
